<svg width="17" height="16" viewBox="0 0 17 16" fill="none" xmlns="http://www.w3.org/2000/svg">
<path d="M14.4505 6.76953C14.53 7.20831 14.5735 7.66775 14.5735 8.14759C14.5735 11.8965 12.1421 14.5625 8.47067 14.5625C4.95827 14.5625 2.11328 11.6257 2.11328 8C2.11328 4.37428 4.95827 1.4375 8.47067 1.4375C10.1873 1.4375 11.6214 2.08959 12.7222 3.14781L10.93 4.99772V4.9935C10.2625 4.33719 9.41629 4.00094 8.47067 4.00094C6.37282 4.00094 4.66823 5.83022 4.66823 7.99597C4.66823 10.1613 6.37279 11.995 8.47067 11.995C10.374 11.995 11.6691 10.8711 11.9358 9.32897H8.47067V6.76953H14.4505Z" fill="#F6AB27"/>
</svg>
