<svg width="55" height="54" viewBox="0 0 55 54" fill="none" xmlns="http://www.w3.org/2000/svg">
<g clip-path="url(#clip0_132_985)">
<path d="M54.7611 27C54.7611 41.9111 42.6722 54 27.7598 54H27.7092C12.8207 53.9721 0.759766 41.8912 0.759766 27C0.759766 12.1088 12.8207 0.0266128 27.7092 0H27.7598C42.6722 0 54.7611 12.0849 54.7611 27Z" fill="black"/>
<path d="M27.7092 0V54C12.8207 53.9721 0.759766 41.8912 0.759766 27C0.759766 12.1088 12.8207 0.0266128 27.7092 0Z" fill="#0C0C0C"/>
<path d="M42.4511 19.5258L42.4178 25.0573C41.3399 25.0441 40.2675 24.9002 39.2243 24.6288C37.6148 24.2084 36.0968 23.4942 34.7467 22.5224C34.7467 23.0879 34.7547 23.9315 34.7547 24.9575C34.7547 26.3227 34.7547 27.0985 34.7467 27.9221C34.7227 33.0105 34.8491 33.9952 34.402 36.0071C34.309 36.4923 34.1819 36.9703 34.0215 37.4375C33.1619 39.8327 31.2883 41.7515 29.3789 42.7721C28.846 43.0553 28.2867 43.2858 27.7089 43.46C24.1002 44.5538 19.7637 43.5931 17.5255 40.9318L17.5109 40.9158L17.4936 40.8932C15.5921 38.5992 15.177 35.0224 15.137 34.1069C15.137 33.9898 15.1291 33.8754 15.1291 33.8754C15.0998 32.6248 15.2797 31.3782 15.6613 30.1869C16.0472 28.9547 17.318 26.3826 20.1722 24.8204C21.9523 23.8615 23.984 23.4727 25.9924 23.7067L25.9272 29.3047C25.8141 29.2754 23.0796 28.6274 21.2846 30.4903C19.6586 32.1775 19.7637 34.896 20.9173 36.4356C20.9785 36.5181 21.0437 36.5979 21.1116 36.6724C21.757 37.3923 22.5753 37.6624 23.1275 37.8514C23.8598 38.0926 24.6283 38.2052 25.3989 38.184C26.2245 38.1711 27.0276 37.9132 27.7063 37.4429C29.5825 36.1681 29.8353 33.898 29.8446 33.769C29.8215 26.4611 29.7998 19.1532 29.7794 11.8454V11.8387L33.2963 11.7762H33.3535L33.8631 11.7668C34.2389 13.1192 34.8759 14.385 35.738 15.4926C36.0096 15.8391 36.303 16.168 36.6162 16.4773C37.7997 17.6292 39.2214 18.5077 40.7811 19.0508H40.7918C41.3328 19.2485 41.8873 19.4072 42.4511 19.5258Z" fill="#FD2854"/>
<path d="M40.8616 22.0288H40.8509C38.957 22.3322 37.0181 22.1849 35.1917 21.599C33.9164 21.1843 32.7192 20.5596 31.6495 19.7507C32.2909 23.6276 32.2909 27.5835 31.6495 31.4603C30.8898 36.0164 30.4134 38.872 27.8705 40.699C27.8173 40.7375 27.7627 40.7761 27.7082 40.8121C24.1966 43.1899 19.2906 42.0096 17.4929 40.8906L17.4663 40.8746L17.4157 40.8427C16.8231 40.4501 16.2673 40.0048 15.7551 39.512C14.8368 38.6212 14.104 37.5574 13.599 36.3819C13.0941 35.2064 12.8269 33.9425 12.813 32.6632C12.7788 31.3381 12.9988 30.0188 13.461 28.7764C13.7604 27.978 14.8728 25.1385 17.9719 23.41C19.9564 22.3219 22.2494 21.9337 24.4814 22.3082C24.4725 22.7517 24.4641 23.1953 24.4561 23.6388V23.6481L24.4042 26.4558C23.4329 26.2269 22.4289 26.1711 21.4382 26.2908C20.6398 26.3893 19.8574 26.4811 19.0258 27.004C17.9607 27.6896 17.2068 28.7655 16.926 30.0006C16.7483 30.5989 16.7119 31.2302 16.8196 31.8449C16.8515 32.0205 17.0857 33.2407 18.0704 34.1163C18.4017 34.4104 18.5428 34.4223 19.0258 34.8734C19.4516 35.2726 19.558 35.4642 19.9479 35.7956C19.9479 35.7956 20.0437 35.8767 20.2007 35.9912C20.2108 35.9999 20.2215 36.0079 20.2327 36.0151C20.4474 36.1721 20.6728 36.314 20.9073 36.4396C21.8827 36.9505 23.6285 37.0051 24.9085 36.3837C26.6796 35.5228 27.6457 33.5428 27.6417 32.3665C27.6204 25.056 27.5986 17.7459 27.5765 10.4362H27.6989L33.1305 10.4043C33.1267 10.828 33.1854 11.2499 33.3049 11.6564C33.3182 11.7003 33.3315 11.7416 33.3461 11.7895C33.3608 11.8374 33.3701 11.86 33.382 11.8933C33.4663 12.1144 33.5636 12.3304 33.6735 12.54L33.7493 12.693V12.705C33.7481 12.7084 33.7481 12.7122 33.7493 12.7156L33.7613 12.7409L33.7732 12.7649C33.7805 12.7803 33.7885 12.7954 33.7972 12.8101C33.8052 12.8274 33.8145 12.8447 33.8238 12.862C33.8744 12.9591 33.9436 13.0869 34.0221 13.2306C34.0713 13.3197 34.1232 13.4089 34.1764 13.4967L34.2337 13.5912C34.2616 13.6391 34.2909 13.687 34.3201 13.7336L34.4266 13.9025C34.8404 14.5559 35.5669 15.6563 36.5969 16.488C38.0446 17.6563 39.7079 17.9863 40.7511 18.0847C40.7578 18.4121 40.7658 18.7394 40.7724 19.0668C40.8114 20.055 40.8412 21.0423 40.8616 22.0288Z" fill="#24F6FA"/>
<path d="M40.8788 23.5923C38.137 23.6929 35.445 22.8404 33.2609 21.1798V32.8894C33.2343 33.3379 32.8417 38.2839 28.3734 41.0063C28.1525 41.1394 27.9303 41.2632 27.7081 41.3776C23.5046 43.5226 19.3969 41.842 18.9911 41.6677C18.5876 41.5358 18.2008 41.3571 17.8388 41.1354C17.7257 41.0649 17.6152 40.9917 17.5101 40.9159L17.4156 40.8453C14.6745 38.7642 14.5614 34.5248 14.5441 33.8994C14.5148 32.6488 14.6947 31.4021 15.0764 30.2109C15.5288 28.7671 16.8794 26.3334 19.5872 24.8444C21.0814 24.0313 22.7605 23.6187 24.4613 23.6468V23.6561C24.4392 25.0622 24.417 26.4687 24.3948 27.8756C24.1087 27.7984 22.3549 27.3566 20.6411 28.4358C19.576 29.1214 18.8221 30.1972 18.5413 31.4324C18.3733 32.0318 18.337 32.6605 18.4349 33.2753C18.5868 34.0344 18.945 34.737 19.4701 35.3059C19.6909 35.5601 19.9375 35.7907 20.206 35.9938C20.216 36.0025 20.2267 36.0105 20.2379 36.0178C20.4487 36.1804 20.6746 36.3226 20.9125 36.4422L20.9205 36.4489C21.396 37.1669 22.0819 37.7204 22.8842 38.0334C23.6865 38.3464 24.566 38.4037 25.4021 38.1974C25.7917 38.1161 26.1701 37.9883 26.5292 37.8168C26.9641 37.61 27.3627 37.334 27.7094 36.9998C29.056 35.7051 29.253 33.914 29.2623 33.8063L29.2037 11.8653L29.7892 11.8534L33.3061 11.7842H33.3567C33.37 11.8188 33.3846 11.8534 33.3993 11.888C33.4804 12.0836 33.5776 12.3005 33.6907 12.5347L33.7665 12.6877V12.6997C33.7653 12.7031 33.7653 12.7069 33.7665 12.7103L33.7785 12.7356L33.7905 12.7595C33.7977 12.775 33.8057 12.7901 33.8144 12.8048C33.8224 12.8221 33.8317 12.8394 33.841 12.8567C33.9022 12.9764 33.9741 13.1002 34.0393 13.2253C34.0885 13.3144 34.1404 13.4036 34.1936 13.4914L34.2509 13.5859L34.3374 13.7282L34.4438 13.8972C35.0525 14.8492 35.782 15.7183 36.6141 16.4827C37.8284 17.5945 39.2414 18.4675 40.779 19.0561H40.7896C40.8069 20.0421 40.8242 21.0308 40.8402 22.0168L40.8788 23.5923Z" fill="white"/>
<path opacity="0.17" d="M42.4511 19.5258L42.4179 25.0573C41.3399 25.0441 40.2676 24.9002 39.2243 24.6288C37.6148 24.2084 36.0968 23.4943 34.7467 22.5224C34.7467 23.0879 34.7547 23.9316 34.7547 24.9575C34.7547 26.3227 34.7547 27.0985 34.7467 27.9222C34.7228 33.0105 34.8492 33.9952 34.4021 36.0071C34.3091 36.4923 34.1819 36.9703 34.0215 37.4376C33.1619 39.8327 31.2884 41.7515 29.3789 42.7721C28.8461 43.0554 28.2868 43.2858 27.709 43.46V10.4362L33.1407 10.4043C33.1368 10.828 33.1955 11.2499 33.315 11.6564C33.3283 11.7003 33.3416 11.7416 33.3562 11.7895L33.8658 11.7802C34.2416 13.1326 34.8786 14.3983 35.7407 15.506C36.0124 15.8524 36.3057 16.1813 36.6189 16.4906C38.0667 17.6589 39.73 17.9889 40.7732 18.0874C40.7799 18.4147 40.7878 18.7421 40.7945 19.0694C41.3352 19.2607 41.8888 19.4132 42.4511 19.5258Z" fill="black"/>
</g>
<defs>
<clipPath id="clip0_132_985">
<rect width="54" height="54" fill="white" transform="translate(0.759766)"/>
</clipPath>
</defs>
</svg>
