<svg width="17" height="17" viewBox="0 0 17 17" fill="none" xmlns="http://www.w3.org/2000/svg">
<circle cx="8.5" cy="8.5" r="8" fill="white" stroke="#FBB508"/>
<path fill-rule="evenodd" clip-rule="evenodd" d="M11.7174 6.06058C11.9127 5.86532 11.9127 5.54874 11.7174 5.35348C11.5222 5.15822 11.2056 5.15822 11.0103 5.35348L8.53571 7.8281L6.06126 5.35365C5.866 5.15838 5.54942 5.15838 5.35416 5.35365C5.1589 5.54891 5.1589 5.86549 5.35416 6.06075L7.82861 8.5352L5.35348 11.0103C5.15822 11.2056 5.15822 11.5222 5.35348 11.7174C5.54874 11.9127 5.86532 11.9127 6.06058 11.7174L8.53571 9.24231L11.011 11.7176C11.2063 11.9129 11.5229 11.9129 11.7181 11.7176C11.9134 11.5223 11.9134 11.2058 11.7181 11.0105L9.24282 8.5352L11.7174 6.06058Z" fill="#FBB508"/>
</svg>
