<svg width="55" height="54" viewBox="0 0 55 54" fill="none" xmlns="http://www.w3.org/2000/svg">
<g clip-path="url(#clip0_132_969)">
<path d="M27.9209 54C42.8326 54 54.9209 41.9117 54.9209 27C54.9209 12.0883 42.8326 0 27.9209 0C13.0092 0 0.920898 12.0883 0.920898 27C0.920898 41.9117 13.0092 54 27.9209 54Z" fill="#FF0000"/>
<path d="M36.7559 16.843H19.0851C18.3789 16.843 17.6797 16.9822 17.0273 17.2525C16.3749 17.5229 15.7822 17.9191 15.283 18.4186C14.7839 18.9181 14.388 19.5111 14.1181 20.1636C13.8482 20.8162 13.7095 21.5155 13.71 22.2217V31.7783C13.7095 32.4845 13.8482 33.1838 14.1181 33.8363C14.388 34.4889 14.7839 35.0819 15.283 35.5814C15.7822 36.0809 16.3749 36.4771 17.0273 36.7475C17.6797 37.0178 18.3789 37.157 19.0851 37.157H36.7559C37.4621 37.157 38.1613 37.0178 38.8137 36.7475C39.466 36.4771 40.0588 36.0809 40.5579 35.5814C41.0571 35.0819 41.453 34.4889 41.7229 33.8363C41.9928 33.1838 42.1315 32.4845 42.131 31.7783V22.2217C42.1315 21.5155 41.9928 20.8162 41.7229 20.1636C41.453 19.5111 41.0571 18.9181 40.5579 18.4186C40.0588 17.9191 39.466 17.5229 38.8137 17.2525C38.1613 16.9822 37.4621 16.843 36.7559 16.843ZM24.176 31.3555V22.6445L31.665 27L24.176 31.3555Z" fill="white"/>
</g>
<defs>
<clipPath id="clip0_132_969">
<rect width="54" height="54" fill="white" transform="translate(0.920898)"/>
</clipPath>
</defs>
</svg>
