<svg width="46" height="46" viewBox="0 0 46 46" fill="none" xmlns="http://www.w3.org/2000/svg">
<path d="M42.2911 8.36536V21.2169C42.2911 32.9208 34.3431 43.1262 22.9901 46C11.656 43.1357 3.70801 32.9208 3.70801 21.2169V8.36536C12.633 7.36 17.6882 3.96454 22.9996 0C28.3109 3.96454 33.3661 7.36 42.2911 8.36536Z" fill="#4FED9A"/>
<path d="M23.0005 40.9258C14.4549 38.2132 8.58398 30.2841 8.58398 21.2169V12.5101C14.5877 11.2013 18.998 8.7827 23.0005 6.02271C27.0883 8.85858 31.4133 11.2297 37.417 12.5196V21.2264C37.417 30.2841 31.546 38.2132 23.0005 40.9258Z" fill="#61AFF6"/>
<path d="M19.8035 30.8627L15.0518 26.1109L17.4608 23.6924L19.8035 26.0256L28.5388 17.2998L30.9478 19.7089L19.8035 30.8627Z" fill="#FFFCFC"/>
</svg>
