<svg width="54" height="54" viewBox="0 0 54 54" fill="none" xmlns="http://www.w3.org/2000/svg">
<path d="M54 27C54 40.4768 44.126 51.647 31.2188 53.672V34.8047H37.51L38.707 27H31.2188V21.9354C31.2188 19.7996 32.265 17.7188 35.6189 17.7188H39.0234V11.0742C39.0234 11.0742 35.9332 10.5469 32.979 10.5469C26.8123 10.5469 22.7812 14.2847 22.7812 21.0516V27H15.9258V34.8047H22.7812V53.672C9.87398 51.647 0 40.4768 0 27C0 12.0888 12.0888 0 27 0C41.9112 0 54 12.0888 54 27Z" fill="#1877F2"/>
<path d="M37.51 34.8047L38.707 27H31.2188V21.9353C31.2188 19.8001 32.2648 17.7188 35.6188 17.7188H39.0234V11.0742C39.0234 11.0742 35.9336 10.5469 32.9796 10.5469C26.8122 10.5469 22.7812 14.2847 22.7812 21.0516V27H15.9258V34.8047H22.7812V53.6719C24.1559 53.8876 25.5648 54 27 54C28.4352 54 29.8441 53.8876 31.2188 53.6719V34.8047H37.51Z" fill="white"/>
</svg>
