<svg width="16" height="16" viewBox="0 0 16 16" fill="none" xmlns="http://www.w3.org/2000/svg">
<g clip-path="url(#clip0_309_1467)">
<path d="M15.0819 3.42188C14.5551 3.6625 13.992 3.825 13.3987 3.9C14.0041 3.525 14.4703 2.93125 14.6883 2.225C14.1222 2.57187 13.4955 2.825 12.8265 2.95937C12.2907 2.36875 11.5278 2 10.6862 2C9.06656 2 7.75573 3.35625 7.75573 5.02812C7.75573 5.26562 7.77995 5.49688 7.83141 5.71875C5.39441 5.59375 3.2329 4.3875 1.78886 2.55312C1.53759 3 1.39228 3.52187 1.39228 4.075C1.39228 5.125 1.90996 6.05313 2.69706 6.59688C2.21572 6.58438 1.76162 6.44688 1.36806 6.21875C1.36806 6.23125 1.36806 6.24375 1.36806 6.25625C1.36806 7.725 2.37919 8.94688 3.7203 9.225C3.47509 9.29375 3.21474 9.33125 2.94833 9.33125C2.76064 9.33125 2.57597 9.3125 2.39736 9.275C2.76972 10.4781 3.8535 11.3531 5.13709 11.3781C4.13504 12.1906 2.86962 12.675 1.49521 12.675C1.25908 12.675 1.02598 12.6594 0.795898 12.6313C2.0916 13.5 3.63251 14 5.28543 14C10.6801 14 13.6288 9.38438 13.6288 5.38125C13.6288 5.25 13.6257 5.11875 13.6197 4.99062C14.1918 4.5625 14.6883 4.02813 15.0819 3.42188Z" fill="#F6AB27"/>
</g>
<defs>
<clipPath id="clip0_309_1467">
<rect width="15.4999" height="16" fill="white" transform="translate(0.1875)"/>
</clipPath>
</defs>
</svg>
