<svg width="90" height="90" viewBox="0 0 90 90" fill="none" xmlns="http://www.w3.org/2000/svg">
<g clip-path="url(#clip0_322_1707)">
<path d="M85.9151 18.8218C84.6845 14.8928 81.4795 11.8972 77.4672 10.9738C55.9052 6.0107 34.0945 6.0107 12.5328 10.9738C8.52053 11.8972 5.31565 14.8928 4.08512 18.8218C-1.36218 36.214 -1.36129 53.788 4.08529 71.1783C5.31582 75.1072 8.52088 78.1028 12.5329 79.0263C34.0946 83.9893 55.9052 83.9893 77.4672 79.0263C81.4793 78.1028 84.6844 75.1072 85.9149 71.1783C91.3616 53.7878 91.3622 36.2142 85.9151 18.8218Z" fill="url(#paint0_linear_322_1707)"/>
<path d="M0.442383 53.6003C1.04274 59.471 2.25491 65.3349 4.08491 71.178C5.31544 75.1068 8.5205 78.1026 12.5326 79.026C34.0943 83.9891 55.9048 83.9891 77.4669 79.026C81.4789 78.1026 84.684 75.107 85.9145 71.178C87.7445 65.3349 88.9567 59.471 89.557 53.6003H0.442383Z" fill="url(#paint1_linear_322_1707)"/>
<path d="M77.4671 79.0262C81.4791 78.1027 84.6842 75.1071 85.9147 71.1782C86.5754 69.0683 87.1544 66.9558 87.6549 64.8411L65.1623 42.3486C64.8102 41.8308 64.3452 41.3697 63.7634 41.0049L39.7659 26.307C36.6252 24.3373 32.8975 26.2416 32.8975 29.9489V60.051C32.8975 61.7268 33.3794 63.1045 34.5835 63.9313L53.1658 82.5136C61.2836 82.0472 69.3928 80.8848 77.4671 79.0262Z" fill="url(#paint2_linear_322_1707)"/>
<path d="M63.764 41.0049L39.7665 25.9539C36.6258 23.9841 32.5449 26.2417 32.5449 29.949V60.0512C32.5449 63.7585 36.6258 66.016 39.7665 64.0463L63.764 48.9953C66.7109 47.1468 66.7109 42.8532 63.764 41.0049Z" fill="url(#paint3_linear_322_1707)"/>
</g>
<defs>
<linearGradient id="paint0_linear_322_1707" x1="22.1816" y1="22.1814" x2="69.2301" y2="69.2299" gradientUnits="userSpaceOnUse">
<stop stop-color="#FF637B"/>
<stop offset="1" stop-color="#F90217"/>
</linearGradient>
<linearGradient id="paint1_linear_322_1707" x1="44.9998" y1="63.8822" x2="44.9998" y2="82.0725" gradientUnits="userSpaceOnUse">
<stop stop-color="#F90217" stop-opacity="0"/>
<stop offset="0.2669" stop-color="#E7010F" stop-opacity="0.267"/>
<stop offset="0.7232" stop-color="#CE0004" stop-opacity="0.723"/>
<stop offset="1" stop-color="#C50000"/>
</linearGradient>
<linearGradient id="paint2_linear_322_1707" x1="68.685" y1="75.1458" x2="51.4509" y2="51.0533" gradientUnits="userSpaceOnUse">
<stop stop-color="#F90217" stop-opacity="0"/>
<stop offset="0.2669" stop-color="#E7010F" stop-opacity="0.267"/>
<stop offset="0.7232" stop-color="#CE0004" stop-opacity="0.723"/>
<stop offset="1" stop-color="#C50000"/>
</linearGradient>
<linearGradient id="paint3_linear_322_1707" x1="39.8497" y1="43.1156" x2="50.2631" y2="53.529" gradientUnits="userSpaceOnUse">
<stop stop-color="#EBEFF0"/>
<stop offset="1" stop-color="#E3E5E4"/>
</linearGradient>
<clipPath id="clip0_322_1707">
<rect width="90" height="90" fill="white"/>
</clipPath>
</defs>
</svg>
