<svg width="46" height="46" viewBox="0 0 46 46" fill="none" xmlns="http://www.w3.org/2000/svg">
<g clip-path="url(#clip0_132_1016)">
<path d="M44.6889 34.3155H1.02907C0.460719 34.3155 0 33.8548 0 33.2864V29.8446H46V33.0044C46 33.7285 45.413 34.3155 44.6889 34.3155Z" fill="#399AEA"/>
<path d="M44.6889 34.3156H32.6475V16.1802H40.2781C40.6755 16.1802 41.0566 16.3394 41.3359 16.6221L45.5709 20.9094C45.8458 21.1877 45.9999 21.5631 45.9999 21.9543V33.0046C45.9999 33.7285 45.4129 34.3156 44.6889 34.3156Z" fill="#61AFF6"/>
<path d="M45.5705 20.9094L41.3355 16.6221C41.0562 16.3393 40.6752 16.1802 40.2777 16.1802H35.1475C35.5449 16.1802 35.926 16.3394 36.2053 16.6221L40.4402 20.9094C40.7152 21.1877 40.8693 21.5631 40.8693 21.9543V34.3157H44.6885C45.4127 34.3157 45.9996 33.7286 45.9996 33.0046V21.9542C45.9996 21.5631 45.8454 21.1876 45.5705 20.9094Z" fill="#399AEA"/>
<path d="M35.1982 25.1697V19.5349C35.1982 19.1957 35.4732 18.9208 35.8123 18.9208H39.5777C39.7418 18.9208 39.8991 18.9865 40.0146 19.1033L43.273 22.4019C43.3865 22.5168 43.4501 22.6718 43.4501 22.8334V25.1697C43.4501 25.5088 43.1752 25.7838 42.836 25.7838H35.8123C35.4732 25.7838 35.1982 25.5088 35.1982 25.1697Z" fill="#33D8DD"/>
<path d="M39.0204 37.9048C41.2461 37.9048 43.0505 36.1005 43.0505 33.8747C43.0505 31.649 41.2461 29.8446 39.0204 29.8446C36.7946 29.8446 34.9902 31.649 34.9902 33.8747C34.9902 36.1005 36.7946 37.9048 39.0204 37.9048Z" fill="#3D6687"/>
<path d="M39.02 35.4318C39.8799 35.4318 40.5771 34.7347 40.5771 33.8747C40.5771 33.0148 39.8799 32.3176 39.02 32.3176C38.16 32.3176 37.4629 33.0148 37.4629 33.8747C37.4629 34.7347 38.16 35.4318 39.02 35.4318Z" fill="#CCCBCA"/>
<path d="M0 31.755H32.6475V8.83037C32.6475 8.42428 32.3183 8.09509 31.9122 8.09509H0.735281C0.329188 8.09509 0 8.42428 0 8.83037V31.755Z" fill="#FFC06C"/>
<path d="M31.9126 8.09509H27.5176V31.7549H32.6478V8.83037C32.6477 8.42428 32.3186 8.09509 31.9126 8.09509Z" fill="#EDA558"/>
<path d="M8.05942 37.9048C10.2852 37.9048 12.0895 36.1005 12.0895 33.8747C12.0895 31.649 10.2852 29.8446 8.05942 29.8446C5.83364 29.8446 4.0293 31.649 4.0293 33.8747C4.0293 36.1005 5.83364 37.9048 8.05942 37.9048Z" fill="#3D6687"/>
<path d="M8.06001 35.4318C8.91996 35.4318 9.61709 34.7347 9.61709 33.8747C9.61709 33.0148 8.91996 32.3176 8.06001 32.3176C7.20006 32.3176 6.50293 33.0148 6.50293 33.8747C6.50293 34.7347 7.20006 35.4318 8.06001 35.4318Z" fill="#CCCBCA"/>
<path d="M19.4269 16.5494H12.8731C12.5678 16.5494 12.3203 16.3019 12.3203 15.9966V8.09509H19.9797V15.9966C19.9797 16.302 19.7322 16.5494 19.4269 16.5494Z" fill="#FF4C4C"/>
<path d="M21.7389 28.706H28.9984C29.3806 28.706 29.6905 28.3963 29.6905 28.014C29.6905 27.6317 29.3806 27.3219 28.9984 27.3219H21.7389C21.3567 27.3219 21.0469 27.6318 21.0469 28.014C21.0469 28.3962 21.3567 28.706 21.7389 28.706Z" fill="black"/>
<path d="M21.7389 24.7073H28.9984C29.3806 24.7073 29.6905 24.3974 29.6905 24.0152C29.6905 23.633 29.3806 23.3231 28.9984 23.3231H21.7389C21.3567 23.3231 21.0469 23.6329 21.0469 24.0152C21.0469 24.3975 21.3567 24.7073 21.7389 24.7073Z" fill="black"/>
</g>
<defs>
<clipPath id="clip0_132_1016">
<rect width="46" height="46" fill="white"/>
</clipPath>
</defs>
</svg>
