<svg width="55" height="54" viewBox="0 0 55 54" fill="none" xmlns="http://www.w3.org/2000/svg">
<circle cx="27.8398" cy="27" r="27" fill="#61AFF6"/>
<rect x="10.5" y="9.5" width="36" height="35" rx="3.5" fill="white" stroke="#0180C7"/>
<g clip-path="url(#clip0_701_4021)">
<path d="M17.2848 39.6623C17.1479 39.6 17.049 39.5299 17.2088 39.3898C17.3076 39.3119 17.4141 39.2418 17.5206 39.1717C18.517 38.5098 19.4526 37.7856 20.0686 36.7187C20.5859 35.8309 20.5022 35.3091 19.8557 34.655C16.2504 30.9637 14.6683 26.5483 15.4594 21.3307C15.9081 18.387 17.224 15.8405 19.1407 13.6289C20.2968 12.2894 21.6735 11.207 23.1795 10.3036C23.2708 10.2491 23.4001 10.2336 23.4153 10.0934C23.3849 10.0155 23.3316 10.0389 23.286 10.0389C20.7228 10.0389 18.1595 9.98436 15.6039 10.0544C13.1547 10.1323 11.0403 12.0714 11.0479 14.8515C11.0631 22.9738 11.0479 31.0961 11.0479 39.2262C11.0479 41.7494 12.9266 43.8598 15.3833 43.9532C17.4598 44.0389 19.5362 43.9688 21.6203 43.961C21.7724 43.9688 21.9245 43.9766 22.0766 43.9766H33.0598C35.7979 43.9766 38.5361 43.9921 41.2743 43.9766C43.8147 43.9766 45.876 41.874 45.876 39.2807V39.234V34.6784C45.876 34.5693 45.914 34.4525 45.8455 34.3357C45.7086 34.3435 45.6554 34.4603 45.5793 34.5382C44.1037 36.0567 42.362 37.2794 40.4528 38.1438C35.7751 40.2542 31.0137 40.4021 26.1839 38.7045C25.7656 38.5487 25.3092 38.5331 24.8757 38.6422C24.2368 38.8057 23.6055 39.0004 22.9742 39.1951C21.1183 39.7869 19.2244 40.0517 17.2848 39.6623ZM22.7992 26.5405C22.9285 26.3692 22.997 26.2679 23.073 26.1667C24.0694 24.874 25.0658 23.5812 26.0622 22.2807C26.3512 21.9069 26.6403 21.5254 26.8228 21.0737C27.0358 20.5597 26.8076 20.0769 26.2904 19.89C26.0622 19.8199 25.8188 19.7888 25.5754 19.8043C24.2215 19.7965 22.8601 19.7965 21.5062 19.8043C21.316 19.8043 21.1259 19.8277 20.9433 19.8744C20.5174 19.9834 20.2588 20.4273 20.3653 20.8712C20.4413 21.1671 20.6695 21.4008 20.9585 21.4708C21.1411 21.5176 21.3312 21.5409 21.5214 21.5331C22.3429 21.5409 23.1719 21.5331 23.9934 21.5409C24.0846 21.5409 24.1987 21.4786 24.2672 21.6188C24.1987 21.7123 24.1303 21.8057 24.0618 21.8914C22.8829 23.4177 21.7115 24.9518 20.5326 26.4782C20.2436 26.8598 20.0915 27.2803 20.3044 27.7475C20.5174 28.2148 20.9509 28.3004 21.3921 28.3316C21.742 28.355 22.0995 28.3394 22.4569 28.3394C23.6891 28.3394 24.9137 28.3472 26.1459 28.3316C26.8 28.3238 27.1499 27.9189 27.0814 27.2959C27.0282 26.8053 26.7011 26.5483 26.0926 26.5405C25.0202 26.5327 23.9477 26.5405 22.7992 26.5405ZM31.6222 22.4443C30.6715 21.5954 29.6218 21.5409 28.595 22.1639C27.3476 22.9115 26.8913 24.1342 27.0434 25.5515C27.1879 26.8753 27.7507 27.9578 29.1046 28.4017C29.9489 28.682 30.7323 28.5808 31.4245 28.0045C31.607 27.8566 31.6603 27.8877 31.7896 28.0512C32.0406 28.3783 32.4741 28.5029 32.8544 28.355C33.2347 28.2381 33.4857 27.8799 33.4857 27.475C33.4933 25.9175 33.5009 24.36 33.4857 22.8025C33.4781 22.1795 32.9076 21.7823 32.3144 21.9069C31.9873 21.977 31.8048 22.2029 31.6222 22.4443ZM36.8932 25.3334C36.8628 27.2803 38.4372 28.7521 40.4148 28.5496C42.2327 28.3627 43.4116 26.9688 43.3507 24.9986C43.2899 23.0517 41.8752 21.72 39.9356 21.7823C38.1178 21.8369 36.8324 23.332 36.8932 25.3334ZM36.2239 23.7837C36.2239 22.5611 36.2315 21.3462 36.2239 20.1236C36.2239 19.5006 35.836 19.1113 35.2579 19.119C34.6951 19.1268 34.3224 19.5162 34.3148 20.1158C34.3072 20.4818 34.3148 20.8401 34.3148 21.2061V27.3971C34.3148 27.8799 34.6038 28.3004 34.9841 28.4017C35.5089 28.5496 36.0489 28.2304 36.1859 27.693C36.2087 27.5996 36.2239 27.5061 36.2163 27.4049C36.2315 26.1978 36.2239 24.9908 36.2239 23.7837Z" fill="#FDFEFE"/>
<path d="M22.5 44C20.4235 44 17.1512 44.4749 15.0747 44.397C12.618 44.2957 10.7393 42.1853 10.7393 39.67C10.7393 31.5477 10.5152 22.6301 10.5 14.5C10.5 11.7199 12.6221 9.78081 15.0636 9.71072C17.6193 9.64063 20.6157 9.83236 23.1789 9.83236C23.1789 9.55312 23.9772 9.92209 24 9.99997C23.9848 10.1401 23.2626 10.2646 23.1789 10.3191C21.673 11.2225 20.2963 12.3049 19.1401 13.6443C17.231 15.856 15.9076 18.3947 15.4588 21.3461C14.6678 26.5559 16.2574 30.9792 19.8551 34.6705C20.494 35.3324 20.5777 35.8464 20.0681 36.7341C19.452 37.801 18.5164 38.5252 17.5201 39.1872C17.4136 39.2495 17.3071 39.3274 17.2006 39.3974C17.0409 39.5376 17.1397 39.6077 17.2767 39.67C17.3071 39.7401 17.3451 39.8024 17.3907 39.8647C18.2654 40.659 19.0945 41.5078 19.954 42.3177C20.3571 42.6993 20.7602 43.0965 21.1481 43.4936C21.3079 43.6416 22.462 43.7196 22.5 44Z" fill="#0180C7"/>
<path d="M21.3947 43.9686C21.3561 43.6861 21.0863 43.6377 20.9244 43.4682C20.5311 43.0484 20.1225 42.6448 19.7139 42.2493C18.8427 41.4099 18.0023 40.53 17.1156 39.7067C17.0694 39.6422 17.0308 39.5776 17 39.5049C18.966 39.9085 20.8858 39.6341 22.7747 39.0287C23.4147 38.8269 24.0546 38.6251 24.7022 38.4556C25.1417 38.3345 25.6043 38.3587 26.0283 38.5202C30.9164 40.2798 35.7428 40.1184 40.4921 37.939C42.4273 37.043 44.1929 35.7839 45.6886 34.2099C45.7657 34.1291 45.8197 34.0081 45.9585 34C46.0279 34.113 45.9893 34.2341 45.9893 34.3552V39.0771C46.0047 41.7731 43.9385 43.9686 41.3634 43.9928H41.3248C38.5492 44.009 35.7737 43.9928 32.9981 43.9928H21.8573C21.7031 43.9767 21.5489 43.9686 21.3947 43.9686Z" fill="#0172B1"/>
<path d="M22.7989 26.5406C23.9474 26.5406 25.0275 26.5328 26.0999 26.5406C26.7008 26.5484 27.0278 26.8054 27.0887 27.296C27.1571 27.9112 26.8073 28.3239 26.1531 28.3317C24.921 28.3473 23.6964 28.3395 22.4642 28.3395C22.1067 28.3395 21.7569 28.3551 21.3994 28.3317C20.9582 28.3083 20.5247 28.2149 20.3117 27.7476C20.0987 27.2804 20.2509 26.8599 20.5399 26.4783C21.7112 24.952 22.8902 23.4178 24.0691 21.8915C24.1375 21.798 24.206 21.7046 24.2745 21.6189C24.1984 21.4865 24.0919 21.5488 24.0006 21.5411C23.1792 21.5333 22.3501 21.5411 21.5287 21.5333C21.3385 21.5333 21.1484 21.5099 20.9658 21.471C20.5323 21.3697 20.2661 20.9258 20.3649 20.4897C20.4334 20.1938 20.6616 19.9524 20.9506 19.8823C21.1332 19.8356 21.3233 19.8122 21.5135 19.8122C22.8673 19.8044 24.2288 19.8044 25.5827 19.8122C25.8261 19.8044 26.0619 19.8356 26.2977 19.8979C26.8149 20.077 27.0354 20.5676 26.8301 21.0816C26.6475 21.5255 26.3585 21.9071 26.0695 22.2886C25.0731 23.5892 24.0767 24.8819 23.0803 26.1668C22.9966 26.268 22.9206 26.3693 22.7989 26.5406Z" fill="#0180C7"/>
<path d="M31.6227 22.4444C31.8052 22.203 31.9954 21.9772 32.3072 21.9149C32.9081 21.7903 33.4709 22.1874 33.4785 22.8104C33.5013 24.3679 33.4937 25.9254 33.4785 27.4829C33.4785 27.8878 33.2199 28.246 32.8472 28.3629C32.4669 28.5108 32.0334 28.394 31.7824 28.0591C31.6531 27.8956 31.5998 27.8645 31.4173 28.0124C30.7251 28.5887 29.9417 28.6899 29.0974 28.4096C27.7436 27.9579 27.1883 26.8755 27.0362 25.5594C26.8765 24.1343 27.3405 22.9194 28.5878 22.1718C29.6223 21.5411 30.6719 21.5956 31.6227 22.4444ZM28.9301 25.2868C28.9453 25.6295 29.0518 25.9565 29.2496 26.2291C29.6603 26.7898 30.4437 26.9066 30.999 26.4861C31.0902 26.416 31.1739 26.3303 31.25 26.2291C31.6759 25.6373 31.6759 24.6638 31.25 24.072C31.037 23.7683 30.7023 23.5892 30.3448 23.5814C29.5082 23.5269 28.9225 24.1888 28.9301 25.2868ZM36.8936 25.3335C36.8328 23.3322 38.1182 21.837 39.9437 21.7825C41.8832 21.7202 43.2979 23.0518 43.3588 24.9987C43.4196 26.9689 42.2407 28.3629 40.4229 28.5498C38.4377 28.7522 36.8632 27.2804 36.8936 25.3335ZM38.8028 25.1466C38.7876 25.536 38.9016 25.9176 39.1298 26.2369C39.5482 26.7976 40.3316 26.9066 40.8792 26.4705C40.9629 26.4082 41.0313 26.3303 41.0998 26.2525C41.5409 25.6606 41.5409 24.6638 41.1074 24.072C40.8944 23.7761 40.5598 23.5892 40.2023 23.5814C39.3808 23.5346 38.8028 24.1732 38.8028 25.1466ZM36.2243 23.7838C36.2243 24.9909 36.2319 26.1979 36.2243 27.405C36.2319 27.9579 35.806 28.4174 35.266 28.4329C35.1747 28.4329 35.0758 28.4252 34.9845 28.4018C34.6042 28.3006 34.3152 27.8878 34.3152 27.3972V21.2062C34.3152 20.8402 34.3076 20.482 34.3152 20.116C34.3228 19.5163 34.6955 19.1269 35.2583 19.1269C35.8364 19.1192 36.2243 19.5085 36.2243 20.1315C36.2319 21.3464 36.2243 22.569 36.2243 23.7838Z" fill="#0180C7"/>
<path d="M28.9298 25.2867C28.9222 24.1887 29.5078 23.5268 30.3369 23.5735C30.6944 23.5891 31.029 23.7682 31.242 24.0719C31.6679 24.6559 31.6679 25.6372 31.242 26.229C30.8313 26.7897 30.0479 26.9065 29.4926 26.486C29.4013 26.4159 29.3177 26.3302 29.2416 26.229C29.0515 25.9564 28.945 25.6294 28.9298 25.2867ZM38.8024 25.1466C38.8024 24.1809 39.3805 23.5345 40.2019 23.5813C40.5594 23.5891 40.8941 23.776 41.107 24.0719C41.5406 24.6637 41.5406 25.6683 41.0994 26.2524C40.6735 26.8053 39.8825 26.8987 39.3424 26.4626C39.2588 26.4003 39.1903 26.3225 39.1295 26.2368C38.9013 25.9175 38.7948 25.5359 38.8024 25.1466Z" fill="#FDFEFE"/>
<path d="M15.4655 9.29163L40.9837 9.18347C43.7542 9.18347 46 11.5637 46 14.5001L46.5 39C46.5 41.9364 44.2542 44.3166 41.4837 44.3166L15.4655 44.7083C12.695 44.7083 10.4492 42.3281 10.4492 39.3917V14.6082C10.4492 11.6718 12.695 9.29163 15.4655 9.29163Z" stroke="#0180C7" stroke-miterlimit="10"/>
</g>
<defs>
<clipPath id="clip0_701_4021">
<rect width="35" height="34" fill="white" transform="translate(11 10)"/>
</clipPath>
</defs>
</svg>
