<svg width="16" height="16" viewBox="0 0 16 16" fill="none" xmlns="http://www.w3.org/2000/svg">
<path d="M8.08309 4.71252C6.16952 4.71252 4.58398 6.32099 4.58398 8.32452C4.58398 10.328 6.14218 11.9365 8.08309 11.9365C10.024 11.9365 11.5822 10.2998 11.5822 8.32452C11.5822 6.34921 9.99666 4.71252 8.08309 4.71252ZM8.08309 10.6384C6.85293 10.6384 5.84147 9.59436 5.84147 8.32452C5.84147 7.05468 6.85293 6.01058 8.08309 6.01058C9.31324 6.01058 10.3247 7.05468 10.3247 8.32452C10.3247 9.59436 9.31324 10.6384 8.08309 10.6384Z" fill="#F6AB27"/>
<path d="M11.7185 5.44625C12.1564 5.44625 12.5113 5.07987 12.5113 4.62791C12.5113 4.17595 12.1564 3.80957 11.7185 3.80957C11.2807 3.80957 10.9258 4.17595 10.9258 4.62791C10.9258 5.07987 11.2807 5.44625 11.7185 5.44625Z" fill="#F6AB27"/>
<path d="M13.7693 2.51146C13.0585 1.74955 12.047 1.35449 10.8989 1.35449H5.26754C2.88924 1.35449 1.30371 2.99118 1.30371 5.4462V11.231C1.30371 12.4444 1.68643 13.4885 2.45185 14.2504C3.18995 14.9841 4.17407 15.351 5.29488 15.351H10.8716C12.0471 15.351 13.0312 14.9559 13.7419 14.2504C14.48 13.5168 14.8627 12.4727 14.8627 11.2593V5.4462C14.8627 4.26102 14.48 3.24514 13.7693 2.51146ZM13.6599 11.2593C13.6599 12.134 13.3592 12.8395 12.8672 13.3192C12.3751 13.7989 11.6917 14.0529 10.8716 14.0529H5.29488C4.47477 14.0529 3.79135 13.7989 3.29929 13.3192C2.80723 12.8113 2.5612 12.1058 2.5612 11.231V5.4462C2.5612 4.59964 2.80723 3.89417 3.29929 3.38624C3.76402 2.90652 4.47477 2.65255 5.29488 2.65255H10.9262C11.7463 2.65255 12.4298 2.90652 12.9218 3.41446C13.3865 3.92239 13.6599 4.62786 13.6599 5.4462V11.2593Z" fill="#F6AB27"/>
</svg>
