<svg width="26" height="26" viewBox="0 0 26 26" fill="none" xmlns="http://www.w3.org/2000/svg">
<g clip-path="url(#clip0_132_224)">
<path d="M24.3516 7.50994L22.0685 16.6441C21.8873 17.3688 21.2389 17.875 20.4914 17.875H6.4116C5.58691 17.875 4.89304 17.2575 4.79798 16.4385L3.15266 3.25H2.03223C1.35866 3.25 0.813477 2.70481 0.813477 2.03125C0.813477 1.35769 1.35866 0.8125 2.03223 0.8125H4.21541C4.82479 0.8125 5.33991 1.26263 5.42279 1.8655L6.05816 6.5H23.5635C24.0916 6.5 24.48 6.99725 24.3516 7.50994Z" fill="#929191"/>
<path d="M5.68848 21.9375C5.68848 23.2814 6.7821 24.375 8.12598 24.375C9.46985 24.375 10.5635 23.2814 10.5635 21.9375C10.5635 20.5936 9.46985 19.5 8.12598 19.5C6.7821 19.5 5.68848 20.5936 5.68848 21.9375Z" fill="#929191"/>
<path d="M20.3135 21.9375C20.3135 20.5936 19.2199 19.5 17.876 19.5C16.5321 19.5 15.4385 20.5936 15.4385 21.9375C15.4385 23.2814 16.5321 24.375 17.876 24.375C19.2199 24.375 20.3135 23.2814 20.3135 21.9375Z" fill="#929191"/>
</g>
<defs>
<clipPath id="clip0_132_224">
<rect width="26" height="26" fill="white" transform="translate(0.000976562)"/>
</clipPath>
</defs>
</svg>
