<svg width="46" height="46" viewBox="0 0 46 46" fill="none" xmlns="http://www.w3.org/2000/svg">
<path d="M32.6393 11.6984L23.586 6.47137C22.4246 5.80078 20.9727 6.63902 20.9727 7.98012V9.96387C17.6809 10.4337 14.6417 11.9458 12.2485 14.339C9.32555 17.2621 7.71582 21.1484 7.71582 25.2821C7.71582 27.071 9.16608 28.5213 10.955 28.5213C12.7438 28.5213 14.1941 27.071 14.1941 25.2821C14.1941 21.0864 17.081 17.5524 20.9728 16.5617V18.4341C20.9728 19.7752 22.4246 20.6134 23.5861 19.9428L32.6395 14.7159C33.8008 14.0453 33.8008 12.3689 32.6393 11.6984Z" fill="#00B889"/>
<path d="M14.7392 36.8474L23.7926 42.0744C24.954 42.745 26.4059 41.9067 26.4059 40.5656V38.5819C29.6977 38.1121 32.7369 36.5999 35.1301 34.2067C38.0225 31.3142 39.6291 27.4783 39.6622 23.3929C39.6768 21.5979 38.2544 20.0441 36.4595 20.0247C34.6542 20.0052 33.1845 21.4629 33.1845 23.2637C33.1845 27.4595 30.2976 30.9934 26.4058 31.9841C26.4058 29.8108 24.0531 28.4525 22.171 29.5392L14.7392 33.8299C13.5778 34.5005 13.5778 36.1769 14.7392 36.8474Z" fill="#00B889"/>
<path d="M31.2604 9.15261L22.2071 3.92559C21.0457 3.255 19.5938 4.09324 19.5938 5.43434V7.41809C16.302 7.88788 13.2628 9.40004 10.8696 11.7932C7.94664 14.7162 6.33691 18.6026 6.33691 22.7363C6.33691 24.5251 7.78717 25.9754 9.57605 25.9754C11.3649 25.9754 12.8152 24.5251 12.8152 22.7363C12.8152 18.5406 15.7021 15.0066 19.5939 14.0159V15.8882C19.5939 17.2293 21.0457 18.0675 22.2072 17.3969L31.2606 12.17C32.4219 11.4995 32.4219 9.82312 31.2604 9.15261Z" fill="#4FED9A"/>
<path d="M13.3603 34.3018L22.4137 39.5287C23.5751 40.1993 25.027 39.361 25.027 38.0199V36.0362C28.3188 35.5664 31.358 34.0542 33.7512 31.6611C36.6741 28.7381 38.2839 24.8517 38.2839 20.718C38.2839 18.9291 36.8336 17.4789 35.0447 17.4789C33.2559 17.4789 31.8056 18.9291 31.8056 20.718C31.8056 24.9137 28.9187 28.4477 25.0269 29.4384V27.5661C25.0269 26.225 23.5751 25.3867 22.4136 26.0573L13.3602 31.2843C12.1989 31.9549 12.1989 33.6313 13.3603 34.3018Z" fill="#4FED9A"/>
</svg>
